<mxfile host="65bd71144e">
    <diagram id="MkSqJtGILwhtnSwbOWAP" name="Page-1">
        <mxGraphModel dx="1282" dy="866" grid="1" gridSize="10" guides="1" tooltips="1" connect="1" arrows="1" fold="1" page="1" pageScale="1" pageWidth="1169" pageHeight="827" math="0" shadow="0">
            <root>
                <mxCell id="0"/>
                <mxCell id="1" parent="0"/>
                <mxCell id="9" value="" style="rounded=0;whiteSpace=wrap;html=1;" vertex="1" parent="1">
                    <mxGeometry x="14" y="63" width="1140" height="697" as="geometry"/>
                </mxCell>
                <mxCell id="10" value="" style="rounded=0;whiteSpace=wrap;html=1;" vertex="1" parent="1">
                    <mxGeometry x="14" y="63" width="156" height="697" as="geometry"/>
                </mxCell>
                <mxCell id="11" value="Metric" style="rounded=0;whiteSpace=wrap;html=1;" vertex="1" parent="1">
                    <mxGeometry x="32" y="330" width="120" height="60" as="geometry"/>
                </mxCell>
                <mxCell id="12" value="Metric" style="rounded=0;whiteSpace=wrap;html=1;" vertex="1" parent="1">
                    <mxGeometry x="32" y="414" width="120" height="60" as="geometry"/>
                </mxCell>
                <mxCell id="13" value="Metric" style="rounded=0;whiteSpace=wrap;html=1;" vertex="1" parent="1">
                    <mxGeometry x="32" y="500" width="120" height="60" as="geometry"/>
                </mxCell>
                <mxCell id="14" value="Metric" style="rounded=0;whiteSpace=wrap;html=1;" vertex="1" parent="1">
                    <mxGeometry x="32" y="590" width="120" height="60" as="geometry"/>
                </mxCell>
                <mxCell id="15" value="Metric" style="rounded=0;whiteSpace=wrap;html=1;" vertex="1" parent="1">
                    <mxGeometry x="32" y="680" width="120" height="60" as="geometry"/>
                </mxCell>
                <mxCell id="16" value="Title" style="rounded=1;whiteSpace=wrap;html=1;" vertex="1" parent="1">
                    <mxGeometry x="190" y="80" width="950" height="60" as="geometry"/>
                </mxCell>
                <mxCell id="17" value="Logo" style="ellipse;whiteSpace=wrap;html=1;aspect=fixed;" vertex="1" parent="1">
                    <mxGeometry x="42" y="190" width="100" height="100" as="geometry"/>
                </mxCell>
                <mxCell id="18" value="Logo" style="rounded=1;whiteSpace=wrap;html=1;" vertex="1" parent="1">
                    <mxGeometry x="32" y="80" width="120" height="60" as="geometry"/>
                </mxCell>
                <mxCell id="19" value="Time series chart&lt;div&gt;Penilaian kinerja penyedia per minggu&lt;/div&gt;" style="rounded=0;whiteSpace=wrap;html=1;" vertex="1" parent="1">
                    <mxGeometry x="190" y="170" width="490" height="220" as="geometry"/>
                </mxCell>
                <mxCell id="20" value="Bar Chart&amp;nbsp;&lt;div&gt;Jenis Pengadaan&lt;/div&gt;" style="rounded=0;whiteSpace=wrap;html=1;" vertex="1" parent="1">
                    <mxGeometry x="700" y="170" width="440" height="220" as="geometry"/>
                </mxCell>
                <mxCell id="21" value="Distribution" style="rounded=0;whiteSpace=wrap;html=1;" vertex="1" parent="1">
                    <mxGeometry x="190" y="410" width="260" height="150" as="geometry"/>
                </mxCell>
                <mxCell id="22" value="Distribution" style="rounded=0;whiteSpace=wrap;html=1;" vertex="1" parent="1">
                    <mxGeometry x="190" y="590" width="260" height="150" as="geometry"/>
                </mxCell>
                <mxCell id="23" value="Table&lt;div&gt;Data data paket yang sudah dinilai&lt;/div&gt;" style="rounded=0;whiteSpace=wrap;html=1;" vertex="1" parent="1">
                    <mxGeometry x="464" y="590" width="676" height="150" as="geometry"/>
                </mxCell>
                <mxCell id="24" value="Bar chart&lt;div&gt;Hasil penilaian&lt;/div&gt;" style="rounded=0;whiteSpace=wrap;html=1;" vertex="1" parent="1">
                    <mxGeometry x="464" y="410" width="336" height="150" as="geometry"/>
                </mxCell>
                <mxCell id="25" value="Distribution&lt;div&gt;Kategori penilaian&lt;/div&gt;" style="rounded=0;whiteSpace=wrap;html=1;" vertex="1" parent="1">
                    <mxGeometry x="818" y="410" width="322" height="150" as="geometry"/>
                </mxCell>
            </root>
        </mxGraphModel>
    </diagram>
</mxfile>